# File created by Blade
# Date/Time:  Thu Jan 15 19:03:44 2015
#---------------------------------------------------------
:version 1.10
:name HOM
:units
  mass 1.0
  length 1.000000
  angle deg
:documentation
     Acclaim Skeleton File
:root
   axis xyz
   order TX TY TZ RX RY RZ
   position 0.000000 0.000000 0.000000
   orientation 0 0 0
:bonedata
   begin
      id 1
      name Spine_dum
      direction 0.000000 1.000000 0.000000
      length 4.354460
      axis 0.0 0.0 0.0 xyz
   end
   begin
      id 2
      name LeftUpLeg_dum
      direction 1.000000 0.000000 0.000000
      length 4.291077
      axis 0.0 0.0 0.0 xyz
   end
   begin
      id 3
      name RightUpLeg_dum
      direction -1.000000 0.000000 0.000000
      length 4.291077
      axis 0.0 0.0 0.0 xyz
   end
   begin
      id 4
      name Spine
      direction 0.000000 1.000000 0.000000
      length 0.000000
      axis 0.0 0.0 0.0 xyz
      dof rx ry rz
   end
   begin
      id 5
      name Spine_dum1
      direction 0.000000 1.000000 0.000000
      length 16.581769
      axis 0.0 0.0 0.0 xyz
   end
   begin
      id 6
      name Spine_dum2
      direction 0.000000 1.000000 0.000000
      length 12.903700
      axis 0.0 0.0 0.0 xyz
   end
   begin
      id 7
      name Spine_dum3
      direction 0.000000 1.000000 0.000000
      length 12.903700
      axis 0.0 0.0 0.0 xyz
   end
   begin
      id 8
      name Head
      direction 0.000000 1.000000 0.000000
      length 4.527550
      axis 0.0 0.0 0.0 xyz
      dof rx ry rz
   end
   begin
      id 9
      name LeftShoulder
      direction 1.000000 0.000000 0.000000
      length 6.942033
      axis 0.0 0.0 -90.0 xyz
      dof rx ry rz
   end
   begin
      id 10
      name LeftArm
      direction 1.000000 0.000000 0.000000
      length 11.010391
      axis 0.0 0.0 -90.0 xyz
      dof rx ry rz
   end
   begin
      id 11
      name LeftForeArm
      direction 1.000000 0.000000 0.000000
      length 8.054994
      axis 0.0 0.0 -90.0 xyz
      dof rz ry rx
   end
   begin
      id 12
      name LeftHand
      direction 0.000000 0.000000 0.000000
      length 0.000000
      axis 0.0 0.0 -90.0 xyz
      dof rx ry rz
   end
   begin
      id 13
      name LeftHand_dum1
      direction 0.000000 0.000000 0.000000
      length 0.000000
      axis 0.0 0.0 -90.0 xyz
   end
   begin
      id 14
      name LeftHand_dum2
      direction 1.000000 0.000000 0.000000
      length 3.937000
      axis 0.0 0.0 -90.0 xyz
   end
   begin
      id 15
      name LeftHandThumb1
      direction 0.000000 0.000000 1.000000
      length 3.937000
      axis 0.0 0.0 -90.0 xyz
      dof rx ry rz
   end
   begin
      id 16
      name RightShoulder
      direction -1.000000 0.000000 0.000000
      length 6.942033
      axis 0.0 0.0 90.0 xyz
      dof rx ry rz
   end
   begin
      id 17
      name RightArm
      direction -1.000000 0.000000 0.000000
      length 11.010391
      axis 0.0 0.0 90.0 xyz
      dof rx ry rz
   end
   begin
      id 18
      name RightForeArm
      direction -1.000000 0.000000 0.000000
      length 8.054994
      axis 0.0 0.0 90.0 xyz
      dof rz ry rx
   end
   begin
      id 19
      name RightHand
      direction 0.000000 0.000000 0.000000
      length 0.000000
      axis 0.0 0.0 90.0 xyz
      dof rx ry rz
   end
   begin
      id 20
      name RightHand_dum1
      direction 0.000000 0.000000 0.000000
      length 0.000000
      axis 0.0 0.0 90.0 xyz
   end
   begin
      id 21
      name RightHand_dum2
      direction -1.000000 0.000000 0.000000
      length 3.937000
      axis 0.0 0.0 90.0 xyz
   end
   begin
      id 22
      name RightHandThumb1
      direction 0.000000 0.000000 1.000000
      length 3.937000
      axis 0.0 0.0 90.0 xyz
      dof rx ry rz
   end
   begin
      id 23
      name LeftUpLeg
      direction 0.000000 -1.000000 0.000000
      length 17.039958
      axis 0.0 0.0 0.0 xyz
      dof rx ry rz
   end
   begin
      id 24
      name LeftLeg
      direction 0.000000 -1.000000 0.000000
      length 16.939743
      axis 0.0 0.0 0.0 xyz
      dof rx ry rz
   end
   begin
      id 25
      name LeftFoot
      direction 0.000000 -0.258819 0.965926
      length 5.235044
      axis 15.0 0.0 0.0 xyz
      dof rx ry rz
   end
   begin
      id 26
      name LeftToeBase
      direction 0.000000 0.000000 1.000000
      length 2.952750
      axis 0.0 0.0 0.0 xyz
      dof rx ry rz
   end
   begin
      id 27
      name RightUpLeg
      direction 0.000000 -1.000000 0.000000
      length 17.039958
      axis 0.0 0.0 0.0 xyz
      dof rx ry rz
   end
   begin
      id 28
      name RightLeg
      direction 0.000000 -1.000000 0.000000
      length 16.939743
      axis 0.0 0.0 0.0 xyz
      dof rx ry rz
   end
   begin
      id 29
      name RightFoot
      direction 0.000000 -0.258819 0.965926
      length 5.235044
      axis 15.0 0.0 0.0 xyz
      dof rx ry rz
   end
   begin
      id 30
      name RightToeBase
      direction 0.000000 0.000000 1.000000
      length 2.952750
      axis 0.0 0.0 0.0 xyz
      dof rx ry rz
   end
:hierarchy
   begin
      root Spine_dum LeftUpLeg_dum RightUpLeg_dum
      Spine_dum Spine
      LeftUpLeg_dum LeftUpLeg
      RightUpLeg_dum RightUpLeg
      Spine Spine_dum1 Spine_dum2 Spine_dum3
      Spine_dum1 Head
      Spine_dum2 LeftShoulder
      Spine_dum3 RightShoulder
      LeftShoulder LeftArm
      LeftArm LeftForeArm
      LeftForeArm LeftHand
      LeftHand LeftHand_dum1 LeftHand_dum2
      LeftHand_dum1 LeftHandThumb1
      RightShoulder RightArm
      RightArm RightForeArm
      RightForeArm RightHand
      RightHand RightHand_dum1 RightHand_dum2
      RightHand_dum1 RightHandThumb1
      LeftUpLeg LeftLeg
      LeftLeg LeftFoot
      LeftFoot LeftToeBase
      RightUpLeg RightLeg
      RightLeg RightFoot
      RightFoot RightToeBase
   end

# File created by Blade
# Date/Time:  Thu Jan 15 19:03:33 2015
# Frame Rate: 120.000 fps
#------------------------------------------------------
:FULLY-SPECIFIED
:DEGREES
2814
root 5.095846 35.309191 -7.051374 -189.103738 -0.576112 -176.242634
Spine 12.587569 28.585748 11.551043
Head -8.511894 -16.415556 6.578085
LeftShoulder -11.890146 20.588910 -1.953458
LeftArm -14.782704 -6.673561 -75.881761
LeftForeArm -0.000000 -6.590080 83.349532
LeftHand 12.699148 -0.000000 36.768176
LeftHandThumb1 -26.253704 33.147579 0.000000
RightShoulder -12.240457 8.699758 -5.534989
RightArm 41.052520 18.056072 82.588004
RightForeArm -0.000000 -16.893091 103.034952
RightHand 7.796396 0.000000 -19.296147
RightHandThumb1 -24.326973 -32.862282 -0.000000
LeftUpLeg -70.883307 -1.548052 -9.130332
LeftLeg 134.451649 -0.000000 -0.000000
LeftFoot 4.552430 25.306666 3.541482
LeftToeBase 9.217961 -0.000000 -0.000000
RightUpLeg 12.904930 -6.171892 11.141819
RightLeg 5.965478 -0.000000 -0.000000
RightFoot -15.918973 -25.717432 0.611379
RightToeBase 10.821314 -0.000000 -0.000000
2815
root 5.105034 35.570528 -7.077184 -189.054942 -1.238211 -177.106167
Spine 12.239232 28.148022 10.088347
Head -8.474321 -16.509688 7.003583
LeftShoulder -11.776459 20.801276 -1.528205
LeftArm -14.218775 -5.498494 -76.713288
LeftForeArm 0.000000 -6.321116 85.410528
LeftHand 12.341465 0.000000 36.388243
LeftHandThumb1 -26.253704 33.147579 0.000000
RightShoulder -12.284450 8.529313 -5.712622
RightArm 40.190890 17.367457 83.058542
RightForeArm -0.000000 -16.870151 103.858492
RightHand 7.523270 -0.000000 -19.657200
RightHandThumb1 -24.326973 -32.862282 -0.000000
LeftUpLeg -69.329776 -1.555715 -9.934912
LeftLeg 131.704127 -0.000000 -0.000000
LeftFoot 4.354584 25.741207 3.546648
LeftToeBase 9.232473 -0.000000 -0.000000
RightUpLeg 13.502974 -5.799218 10.338256
RightLeg 4.605444 -0.000000 -0.000000
RightFoot -13.282424 -26.037236 0.273886
RightToeBase 9.425267 -0.000000 -0.000000
2816
root 5.117659 35.870003 -7.101331 -188.910110 -1.839787 -178.009710
Spine 11.793740 27.801719 8.533814
Head -8.355770 -16.680358 7.438185
LeftShoulder -11.629715 20.973419 -1.103862
LeftArm -13.539670 -4.203137 -77.456357
LeftForeArm -0.000000 -6.095882 87.508904
LeftHand 12.303251 -0.000000 35.072878
LeftHandThumb1 -26.253704 33.147579 0.000000
RightShoulder -12.331236 8.082727 -5.865302
RightArm 39.181936 16.673844 83.512999
RightForeArm -0.000000 -17.026789 104.703296
RightHand 7.401837 -0.000000 -20.036600
RightHandThumb1 -24.326973 -32.862282 -0.000000
LeftUpLeg -67.596797 -1.405858 -10.715932
LeftLeg 128.611228 -0.000000 -0.000000
LeftFoot 4.189266 26.257300 3.554629
LeftToeBase 9.618550 -0.000000 -0.000000
RightUpLeg 13.932968 -5.405428 9.534416
RightLeg 3.331748 -0.000000 -0.000000
RightFoot -10.245104 -26.549056 0.016374
RightToeBase 7.708952 -0.000000 -0.000000
2817
root 5.127232 36.203600 -7.124445 -188.747964 -2.353777 -178.885084
Spine 11.364237 27.589254 7.065844
Head -8.165074 -16.962598 7.798211
LeftShoulder -11.378720 21.072514 -0.738214
LeftArm -12.796309 -2.774139 -78.067085
LeftForeArm -0.000000 -5.704830 89.691067
LeftHand 11.956812 -0.000000 33.500339
LeftHandThumb1 -26.253704 33.147579 0.000000
RightShoulder -12.474165 7.445062 -6.017636
RightArm 38.022765 15.916767 83.870791
RightForeArm -0.000000 -17.232247 105.512598
RightHand 7.403686 -0.000000 -20.307732
RightHandThumb1 -24.326973 -32.862282 -0.000000
LeftUpLeg -65.628754 -1.132616 -11.438554
LeftLeg 125.193180 -0.000000 -0.000000
LeftFoot 4.348105 26.891166 3.808966
LeftToeBase 9.451583 -0.000000 -0.000000
RightUpLeg 14.114632 -5.375576 8.661455
RightLeg 2.452408 -0.000000 -0.000000
RightFoot -6.950223 -26.814148 -0.005032
RightToeBase 5.388689 -0.000000 -0.000000
2818
root 5.131563 36.563475 -7.146050 -188.532232 -2.712882 -179.758153
Spine 10.885309 27.532186 5.650768
Head -7.819444 -17.280428 8.023921
LeftShoulder -11.030002 21.283939 -0.474150
LeftArm -11.850388 -1.279474 -78.545067
LeftForeArm 0.000000 -4.996704 91.862190
LeftHand 11.409584 0.000000 31.996262
LeftHandThumb1 -26.253704 33.147579 0.000000
RightShoulder -12.644290 6.721797 -6.188793
RightArm 36.633423 15.085128 84.155842
RightForeArm -0.000000 -17.731556 106.253565
RightHand 7.232429 -0.000000 -20.228104
RightHandThumb1 -24.326973 -32.862282 -0.000000
LeftUpLeg -63.482421 -0.709467 -12.144672
LeftLeg 121.466124 -0.000000 -0.000000
LeftFoot 4.541902 27.632336 4.085507
LeftToeBase 9.876574 -0.000000 -0.000000
RightUpLeg 14.078808 -5.180663 7.809093
RightLeg 1.835530 -0.000000 -0.000000
RightFoot -3.482408 -27.219247 0.057684
RightToeBase 3.076430 -0.000000 -0.000000
